HIERARCHY
ROOT Hips
{
	OFFSET -3.958830 18.904000 13.208200
	CHANNELS 6 Xposition Yposition Zposition Zrotation Yrotation Xrotation 
	JOINT LHipJoint
	{
		OFFSET 0.000000 0.000000 0.000000
		CHANNELS 3 Zrotation Yrotation Xrotation
		JOINT LeftUpLeg
		{
			OFFSET 1.800000 -1.400000 0.085000
			CHANNELS 3 Zrotation Yrotation Xrotation
			JOINT LeftLeg
			{
				OFFSET 2.215000 -6.000000 0.000000
				CHANNELS 3 Zrotation Yrotation Xrotation
				JOINT LeftFoot
				{
					OFFSET 2.500000 -6.900000 0.000000
					CHANNELS 3 Zrotation Yrotation Xrotation
					JOINT LeftToeBase
					{
						OFFSET 0.200000 -0.500000 1.950000
						CHANNELS 3 Zrotation Yrotation Xrotation
						End Site
						{
							OFFSET 0.000000 0.000000 0.000000
						}
					}
				}
			}
		}
	}
	JOINT RHipJoint
	{
		OFFSET 0.000000 0.000000 0.000000
		CHANNELS 3 Zrotation Yrotation Xrotation
		JOINT RightUpLeg
		{
			OFFSET -1.800000 -1.400000 0.085000
			CHANNELS 3 Zrotation Yrotation Xrotation
			JOINT RightLeg
			{
				OFFSET -2.215000 -6.000000 0.000000
				CHANNELS 3 Zrotation Yrotation Xrotation
				JOINT RightFoot
				{
					OFFSET -2.500000 -6.900000 0.000000
					CHANNELS 3 Zrotation Yrotation Xrotation
					JOINT RightToeBase
					{
						OFFSET -0.200000 -0.500000 1.950000
						CHANNELS 3 Zrotation Yrotation Xrotation
						End Site
						{
							OFFSET 0.000000 0.000000 0.000000
						}
					}
				}
			}
		}
	}
	JOINT LowerBack
	{
		OFFSET 0.000000 0.000000 0.000000
		CHANNELS 3 Zrotation Yrotation Xrotation
		JOINT Spine
		{
			OFFSET -0.087000 1.940000 -0.288900
			CHANNELS 3 Zrotation Yrotation Xrotation
			JOINT Spine1
			{
				OFFSET 0.000000 1.950000 0.060000
				CHANNELS 3 Zrotation Yrotation Xrotation
				JOINT Neck
				{
					OFFSET 0.000000 0.000000 0.000000
					CHANNELS 3 Zrotation Yrotation Xrotation
					JOINT Neck1
					{
						OFFSET 0.000000 1.600000 0.340000
						CHANNELS 3 Zrotation Yrotation Xrotation
						JOINT Head
						{
							OFFSET 0.000000 1.667000 -0.240000
							CHANNELS 3 Zrotation Yrotation Xrotation
							End Site
							{
								OFFSET 0.000000 0.000000 0.000000
							}
						}
					}
				}
				JOINT LeftShoulder
				{
					OFFSET 0.000000 0.000000 0.000000
					CHANNELS 3 Zrotation Yrotation Xrotation
					JOINT LeftArm
					{
						OFFSET 2.700000 1.550000 -0.730000
						CHANNELS 3 Zrotation Yrotation Xrotation
						JOINT LeftForeArm
						{
							OFFSET 5.450000 0.000000 0.000000
							CHANNELS 3 Zrotation Yrotation Xrotation
							JOINT LeftHand
							{
								OFFSET 3.450000 0.000000 0.000000
								CHANNELS 3 Zrotation Yrotation Xrotation
								JOINT LeftHandIndex1
								{
									OFFSET 0.750000 0.000000 0.000000
									CHANNELS 3 Zrotation Yrotation Xrotation
									End Site
									{
										OFFSET 0.000000 0.000000 0.000000
									}
								}
							}
						}
					}
				}
				JOINT RightShoulder
				{
					OFFSET 0.000000 0.000000 0.000000
					CHANNELS 3 Zrotation Yrotation Xrotation
					JOINT RightArm
					{
						OFFSET -2.700000 1.550000 -0.730000
						CHANNELS 3 Zrotation Yrotation Xrotation
						JOINT RightForeArm
						{
							OFFSET -5.450000 0.000000 0.000000
							CHANNELS 3 Zrotation Yrotation Xrotation
							JOINT RightHand
							{
								OFFSET -3.450000 0.000000 0.000000
								CHANNELS 3 Zrotation Yrotation Xrotation
								JOINT RightHandIndex1
								{
									OFFSET -0.750000 0.000000 0.000000
									CHANNELS 3 Zrotation Yrotation Xrotation
									End Site
									{
										OFFSET 0.000000 0.000000 0.000000
									}
								}
							}
						}
					}
				}
			}
		}
	}
}
MOTION
Frames: 10
Frame Time: 0.016667
0.222280 15.874110 -2.711880 5.414545 -13.695152 -9.283481 -15.592286 11.578496 4.742716 36.808229 3.350579 -28.871628 -12.032560 18.222791 42.654779 1.226667 10.447674 0.830054 0.240360 0.030040 0.126070 18.432280 -7.652108 3.720306 -24.376638 13.368353 -31.699052 24.062472 -24.022139 53.789268 -1.911002 -10.555488 0.720316 -0.327040 -0.071930 0.184430 -3.509322 -3.552023 -9.154203 29.880113 -26.639169 59.237056 -21.419226 -7.364833 -9.673536 16.319873 -15.264862 -17.088696 -46.540800 19.204807 31.997472 -9.331530 0.637750 -13.045680 -14.919659 0.441677 0.849074 -53.792979 15.226745 -10.538799 14.188547 13.963776 2.845038 -3.519084 2.891302 0.535580 -0.433320 0.353540 0.168510 -15.823647 15.353273 12.120305 42.356601 -2.373630 -19.881711 -120.784221 25.354611 -54.748896 2.704655 -2.002705 0.204500 0.071470 -0.091330 0.187100 
0.236650 15.847430 -2.612220 3.586357 -12.915627 -3.487948 -15.677620 12.023054 4.255533 34.501701 3.819188 -29.308821 -8.759195 13.909729 33.122915 0.827315 8.551115 1.437498 0.149710 -0.053950 0.019260 18.336125 -7.201833 4.222288 -25.930804 13.786356 -35.758783 29.042273 -25.056958 49.692568 -1.865220 -10.362123 0.827213 -0.372390 0.059190 0.150460 -3.214295 -4.698407 -9.085326 35.326264 -27.395916 52.773773 -22.589021 -5.175531 -16.603622 15.690778 -15.985693 -16.928385 -48.445285 20.550730 32.231046 -6.768630 2.883050 -7.812070 -15.957762 5.293632 -0.221809 -53.033212 21.804331 -11.715998 12.838203 12.082656 2.347567 -3.599562 2.758087 0.515070 -0.376220 0.292360 0.200530 -13.654525 13.528889 11.967477 38.123385 -1.047459 -16.663092 -124.825335 11.148240 -30.215531 2.837729 -2.153462 0.148750 0.121650 -0.050840 0.217990 
0.215120 15.823620 -2.544420 2.656771 -11.706008 1.114763 -15.805986 12.558821 3.924365 31.946435 3.569887 -30.337393 -5.220191 10.560579 25.726372 0.645381 6.889655 2.005806 0.107260 -0.084240 -0.028090 18.180904 -6.733016 4.610491 -27.210478 13.690910 -38.985009 32.867183 -25.477478 46.256529 -1.834165 -10.159840 0.928483 -0.416330 0.111440 0.161370 -2.761024 -6.220322 -9.095155 37.084406 -26.460427 48.678132 -22.349493 -2.314387 -22.213838 15.223366 -16.213236 -17.400840 -47.117692 20.177005 34.160092 -5.530430 5.527400 -1.955690 -14.275774 8.633611 0.005381 -53.613724 27.871698 -13.296121 11.278598 7.306764 1.516208 -3.621922 2.712012 0.474230 -0.320110 0.276080 0.235520 -14.011810 13.301505 11.704450 35.850267 -0.225078 -15.702394 -127.529398 -2.856181 -0.795257 3.121268 -2.348067 0.155730 0.080280 -0.067130 0.236160 
0.176370 15.827550 -2.511710 2.385205 -10.198607 4.433594 -15.848607 12.830968 3.745530 29.820752 2.919952 -30.392367 -3.525011 8.265991 18.727318 0.585412 5.571016 2.458300 0.154850 -0.028460 0.040210 18.097544 -6.471038 4.930551 -28.375593 13.428704 -41.554920 35.494043 -25.529267 43.841902 -1.839861 -9.969409 0.974495 -0.415600 0.048870 0.170070 -2.529632 -7.065841 -9.139792 38.048793 -25.191486 44.922996 -23.027442 -0.154487 -25.511301 14.976190 -15.494659 -18.120784 -44.879605 19.450680 39.055308 -4.397950 6.414870 2.103430 -12.586069 8.708043 0.835061 -54.134771 29.871303 -13.613061 11.377307 9.181942 1.846897 -3.621451 2.747358 0.460840 -0.334160 0.325590 0.253640 -14.607496 14.615997 11.401803 36.205226 -0.502097 -16.667178 -133.300899 -14.186967 26.055989 3.438524 -2.485614 0.199150 0.008640 -0.149040 0.231610 
0.135020 15.859890 -2.497860 2.082163 -9.805934 6.705902 -15.843081 12.807555 3.739466 29.056808 2.552083 -30.771024 -2.900512 7.412576 15.850930 0.567414 5.120599 2.598544 0.134470 -0.072150 0.056810 18.096126 -6.392990 5.084695 -28.026169 13.843969 -43.437886 35.500312 -24.694155 42.836710 -1.773030 -9.689311 1.025069 -0.454010 0.035310 0.191660 -2.514087 -7.135050 -9.176328 38.658017 -24.250860 42.651126 -24.087664 1.262829 -27.850375 13.825428 -14.877234 -18.628550 -44.250134 19.268066 42.373671 -1.076510 5.017480 4.080220 -10.843209 7.529833 2.315284 -55.922463 31.204508 -14.515057 12.143441 10.348876 2.086451 -3.660608 2.773921 0.466920 -0.341920 0.333020 0.216840 -13.609565 15.743217 10.682350 34.654876 -1.620442 -18.301013 -141.343640 -24.907339 57.693683 3.682536 -2.458534 0.216100 -0.038750 -0.134350 0.221410 
0.103950 15.901760 -2.526450 1.458672 -9.699848 7.874565 -15.886625 12.530024 4.064482 30.192023 2.816035 -32.802539 -4.541722 8.253626 17.718649 0.505843 5.685160 2.404593 0.019740 -0.195950 -0.031430 18.116073 -6.269950 5.011932 -26.686699 14.694723 -43.998504 34.332953 -23.583577 42.383867 -1.665724 -9.400388 1.139961 -0.496050 0.127020 0.185430 -2.510915 -7.007210 -9.282678 38.016782 -23.635233 42.992279 -24.051478 1.504401 -28.711126 13.452487 -14.494276 -18.489589 -43.298454 19.175227 42.207379 -0.503740 5.432520 3.539640 -8.439466 7.006801 3.312047 -58.688824 31.141190 -15.393751 11.412766 9.305519 1.832605 -3.755502 2.646291 0.508530 -0.279850 0.283790 0.179560 -14.933097 15.648482 9.430426 33.676895 0.006828 -19.361720 -149.445154 -34.066332 88.881612 3.756323 -2.254516 0.132980 0.030520 -0.024360 0.197100 
0.092510 15.952140 -2.577650 1.075503 -9.713085 8.572165 -15.905641 12.048472 4.535735 31.794914 3.065254 -35.228391 -7.868586 9.968133 21.260127 0.577044 6.634948 2.095050 -0.045060 -0.270560 -0.061460 18.181462 -6.187157 4.884347 -25.613513 15.330086 -44.153618 33.292201 -22.405558 41.723069 -1.553742 -9.066346 1.249822 -0.529900 0.171890 0.176220 -2.624253 -6.518531 -9.420032 36.935998 -23.553521 44.264399 -23.932068 1.127294 -28.741482 12.622597 -15.028337 -17.691086 -42.282095 17.471071 39.684262 0.258220 4.741900 1.103260 -6.430693 7.714340 3.391039 -60.909852 29.763052 -16.185837 14.065819 7.334079 1.798635 -3.788870 2.626001 0.504070 -0.260130 0.246050 0.151250 -15.642823 15.089364 8.344468 32.109558 3.430460 -19.095738 -156.807387 -38.840451 110.865002 3.818142 -2.132859 0.098920 0.056980 0.018160 0.192900 
0.082630 16.042720 -2.636250 1.004708 -9.758614 7.613666 -15.879403 11.735651 4.894230 32.707653 3.058297 -36.649261 -10.655281 11.567134 24.847336 0.663414 7.467585 1.809544 -0.040230 -0.276120 -0.064320 18.236524 -6.345932 4.632944 -23.393178 15.904680 -42.538158 30.562630 -20.695060 41.952615 -1.451399 -8.654339 1.378728 -0.540870 0.169050 0.175110 -2.764416 -5.912082 -9.456082 34.563668 -23.649608 47.010140 -23.277613 0.861306 -27.894784 11.771849 -15.020669 -17.766690 -42.416139 17.045079 39.161729 2.840230 2.864190 -1.384260 -4.540240 6.118727 4.556648 -63.493410 27.947321 -16.734513 12.881077 4.090923 1.129312 -3.721539 2.625661 0.534450 -0.285870 0.250320 0.143060 -15.888143 15.946049 7.763870 30.645497 5.200257 -19.676671 -163.365855 -41.089550 126.605908 3.852970 -2.058914 0.100840 0.064720 0.026870 0.191780 
0.053350 16.141450 -2.722000 1.524236 -10.572859 5.406694 -15.865554 11.579500 5.199587 32.929708 3.069591 -37.616277 -13.415385 13.868024 29.739620 0.859101 8.501861 1.486894 -0.067150 -0.281760 -0.106820 18.254239 -6.552138 4.349894 -20.851210 16.590641 -40.087492 27.039854 -18.542309 42.802655 -1.310579 -8.250438 1.512552 -0.545690 0.206620 0.161960 -2.834160 -5.421048 -9.510598 29.750755 -22.622409 51.676164 -21.829829 1.511439 -26.426529 11.417881 -15.369235 -17.969764 -42.388571 16.014790 38.926009 4.019760 0.886450 -1.864910 -5.681582 4.481135 4.360332 -63.540119 24.770513 -16.097848 15.920929 2.772843 0.961038 -3.699171 2.704226 0.484860 -0.272950 0.220090 0.144320 -14.290683 18.098659 8.522363 28.257638 6.101086 -19.483855 -160.665787 -35.650304 109.237921 3.790919 -2.268609 0.108370 0.082000 0.040880 0.225920 
0.015280 16.247590 -2.849130 2.794968 -11.442272 0.199442 -15.760266 11.756224 5.215992 31.505835 2.230086 -36.613251 -14.728525 16.182780 36.375463 1.162982 9.443623 1.239144 -0.008000 -0.181780 -0.091360 18.262691 -7.180977 3.891551 -17.521706 16.123752 -34.830424 22.267365 -16.034777 44.195977 -1.206409 -7.819822 1.672112 -0.510530 0.200620 0.139910 -2.969078 -4.767662 -9.375427 23.256691 -20.816681 58.272877 -19.150858 1.507926 -20.766775 11.463920 -15.468532 -18.894545 -42.881454 14.345501 39.257853 4.585750 -2.332390 -3.788060 -6.808382 -0.110372 4.906606 -62.906594 19.565603 -14.430238 14.469772 2.188787 0.725730 -3.584468 2.792631 0.428360 -0.298180 0.238810 0.199090 -13.309338 22.149328 9.957914 25.154485 5.715405 -20.510145 -157.794497 -30.737229 86.039444 3.694239 -2.537475 0.156310 0.116750 -0.027570 0.281270 
